<svg width="64" height="64" viewBox="0 0 64 64" fill="none" xmlns="http://www.w3.org/2000/svg">
  <!-- Outer triangle shape for "A" -->
  <path d="M32 8L54 52H10L32 8Z" fill="#1F2937"/>
  
  <!-- Brain-like curvy lines inside the triangle -->
  <path d="M32 18C28 18 25 20 25 23C25 25 26 26 27 27C25 28 24 30 24 32C24 35 26 37 29 37C30 37 31 36.5 32 36C33 36.5 34 37 35 37C38 37 40 35 40 32C40 30 39 28 37 27C38 26 39 25 39 23C39 20 36 18 32 18Z" stroke="white" stroke-width="1.5" fill="none"/>
  
  <!-- Additional brain convolutions -->
  <path d="M28 24C29 25 30 25 31 24" stroke="white" stroke-width="1" fill="none"/>
  <path d="M33 24C34 25 35 25 36 24" stroke="white" stroke-width="1" fill="none"/>
  <path d="M27 30C28 31 29 31 30 30" stroke="white" stroke-width="1" fill="none"/>
  <path d="M34 30C35 31 36 31 37 30" stroke="white" stroke-width="1" fill="none"/>
  <path d="M30 33C31 34 32 34 33 33" stroke="white" stroke-width="1" fill="none"/>
</svg>
